<svg viewBox="0 0 512 512" xmlns="http://www.w3.org/2000/svg">
  <defs>
    <linearGradient id="grad1" x1="0%" y1="0%" x2="100%" y2="100%">
      <stop offset="0%" style="stop-color:#4ade80;stop-opacity:1" />
      <stop offset="100%" style="stop-color:#15803d;stop-opacity:1" />
    </linearGradient>
    <filter id="shadow">
      <feDropShadow dx="2" dy="4" stdDeviation="4" flood-opacity="0.3"/>
    </filter>
  </defs>
  <!-- Apple Body -->
  <path d="M256 460c-28 0-50-16-84-16-36 0-70 18-106 18-54 0-104-126-104-198 0-66 38-152 110-152 42 0 66 22 96 22 30 0 52-22 96-22 22 0 58 6 86 28 -74 38 -64 126 10 160 -16 52 -52 112 -86 142 -20 18 -42 18 -74 18z" fill="url(#grad1)" filter="url(#shadow)"/>
  <!-- Leaf -->
  <path d="M340 50c0 48-52 82-90 82 -6-62 48-100 90-82z" fill="#4ade80" stroke="#003366" stroke-width="2"/>
  <!-- Text 'arb' -->
  <text x="50%" y="60%" dominant-baseline="middle" text-anchor="middle" font-family="Arial, sans-serif" font-weight="900" font-size="160" fill="#f0fdf4" filter="url(#shadow)" stroke="#003366" stroke-width="2">arb</text>
  <!-- Carb chain simulation (arc) -->
  <path d="M160 320 Q256 420 352 320" stroke="#f0fdf4" stroke-width="12" fill="none" stroke-linecap="round" />
</svg>